<?xml version="1.0" encoding="UTF-8"?>
<svg id="Ebene_1" data-name="Ebene 1" xmlns="http://www.w3.org/2000/svg" viewBox="0 0 181.94 43.96">
  <defs>
    <style>
      .cls-1 {
        fill: #fff;
      }

      .cls-2 {
        fill: #1e7c6c;
      }
    </style>
  </defs>
  <g>
    <path class="cls-1" d="M56.09,1.52h6.22v11.58h.17c.58-2.27,1.69-7.71,2.56-11.58h7.09l-4,10.67,4.04,16.77h-7.01l-1.56-10.72-1.28,3.21v7.5h-6.22V1.5v.02h-.01Z"/>
    <path class="cls-1" d="M73.73.28h6.55v5.11h-6.55V.28ZM73.73,6.75h6.55v22.22h-6.55V6.75Z"/>
    <path class="cls-1" d="M96.6,20.4v1.65c0,4.54-1.4,7.3-7.21,7.3-4.99,0-6.97-2.27-6.97-7.54v-8.12c0-4.29,1.98-7.25,7.26-7.25,5.85,0,7.05,3.38,7.05,7.05v1.61h-6.1v-1.98c0-1.24-.17-1.73-.82-1.73-.74,0-.82.62-.82,1.65v9.69c0,1.07.17,1.61.82,1.61.7,0,.82-.62.82-1.98v-1.94h5.98v-.02h-.01Z"/>
    <path class="cls-1" d="M105,15.7h.21c.74-2.64,1.77-6.88,2.35-8.94h6.64l-3.21,8.08,3.38,14.14h-6.92l-1.11-8.12-1.32,2.93v5.19h-6.39V.29h6.39v15.41s-.02,0-.02,0Z"/>
    <path class="cls-1" d="M115.71,1.52h7.63c4.25,0,7.17,1.65,7.17,6.14v1.36c0,3.38-1.36,4.66-2.93,5.15,1.48.58,3.3,1.73,3.3,5.11v2.35c0,5.15-1.98,7.34-7.38,7.34h-7.79V1.52h0ZM122.88,11.86c.74,0,1.2-.41,1.2-1.61v-2.14c0-.91-.17-1.73-1.36-1.73h-.62v5.48h.78ZM122.1,24.15h.58c1.11,0,1.32-.66,1.32-1.9v-3.83c0-1.28-.37-1.81-1.52-1.81h-.37v7.54h-.01Z"/>
    <path class="cls-1" d="M147.86,23.28c0,3.09.08,4.57.21,5.69h-6.26c-.21-.33-.33-1.32-.37-1.73-.99,1.56-2.47,2.02-4,2.02-3.42,0-4.74-3.05-4.74-6.55v-.45c0-5.85,3.87-7.21,8.2-7.21h.33v-2.47c0-1.2-.29-1.48-.87-1.48s-.87.37-.87,1.69v.91h-6.14v-.58c0-4.95,2.68-6.68,7.34-6.68,4.37,0,7.17,1.61,7.17,5.85v11.01-.02h0ZM141.22,19.2h-.29c-1.07,0-1.69.74-1.69,2.47v.16c0,1.69.41,2.14,1.03,2.14.7,0,.95-.62.95-1.73v-3.05h0Z"/>
    <path class="cls-1" d="M164.17,20.4v1.65c0,4.54-1.4,7.3-7.21,7.3-4.99,0-6.97-2.27-6.97-7.54v-8.12c0-4.29,1.98-7.25,7.26-7.25,5.85,0,7.05,3.38,7.05,7.05v1.61h-6.1v-1.98c0-1.24-.17-1.73-.82-1.73-.74,0-.82.62-.82,1.65v9.69c0,1.07.17,1.61.82,1.61.7,0,.82-.62.82-1.98v-1.94h5.98v-.02h0Z"/>
    <path class="cls-1" d="M172.57,15.7h.21c.74-2.64,1.77-6.88,2.35-8.94h6.64l-3.21,8.08,3.38,14.14h-6.92l-1.11-8.12-1.32,2.93v5.19h-6.39V.29h6.39v15.41s-.02,0-.02,0Z"/>
  </g>
  <g>
    <path class="cls-1" d="M55.47,36.47h-.71v-1.18h2.84v1.18h-.71v4.82h-1.42v-4.82Z"/>
    <path class="cls-1" d="M61.15,39.58c0,.94,0,1.41.02,1.7h-1.39c-.03-.13-.04-.28-.04-.38-.25.34-.56.46-.93.46-.5,0-.95-.23-.95-1.22v-3.71h1.43v3.41c0,.21.05.33.21.33.18,0,.23-.13.23-.43v-3.31h1.43v3.15s-.01,0-.01,0Z"/>
    <path class="cls-1" d="M61.65,38.09c0-.86,0-1.4-.02-1.66h1.38c.02.13.04.42.04.6.14-.38.45-.67.89-.68v1.67c-.62,0-.86.14-.86.6v2.66h-1.43v-3.2h0Z"/>
    <path class="cls-1" d="M64.36,37.8c0-.65,0-1.25-.02-1.37h1.38c.03.15.04.27.05.38.13-.18.41-.45.93-.45.73,0,.96.5.96,1.2v3.73h-1.43v-3.38c0-.15-.02-.35-.2-.35-.16,0-.23.1-.23.39v3.35h-1.43v-3.5h-.01Z"/>
    <path class="cls-1" d="M69.32,35.29h1.79c1.04,0,1.52.62,1.52,1.64v.4c0,1.12-.43,1.71-1.55,1.71h-.33v2.25h-1.43s0-6,0-6ZM70.75,37.88h.12c.23,0,.32-.12.32-.48v-.65c0-.32-.13-.41-.32-.41h-.11v1.53h-.01Z"/>
    <path class="cls-1" d="M76.21,40.04c0,.67.02,1,.04,1.24h-1.37c-.04-.07-.07-.29-.08-.38-.22.34-.54.44-.87.44-.75,0-1.04-.67-1.04-1.43v-.1c0-1.28.85-1.58,1.79-1.58h.07v-.54c0-.26-.06-.32-.19-.32s-.19.08-.19.37v.2h-1.34v-.13c0-1.08.58-1.46,1.6-1.46.95,0,1.57.35,1.57,1.28v2.4h.01ZM74.76,39.15h-.06c-.23,0-.37.16-.37.54v.04c0,.37.09.47.23.47.15,0,.21-.14.21-.38v-.67s-.01,0-.01,0Z"/>
    <path class="cls-1" d="M77.9,39.65v.23c0,.3.05.45.21.45.09,0,.16-.07.16-.28,0-.25-.05-.38-.58-.71-.82-.51-1.04-.86-1.04-1.57,0-.95.52-1.42,1.49-1.42,1.35,0,1.49.77,1.49,1.4v.24h-1.24v-.27c0-.29-.04-.39-.18-.39-.12,0-.18.08-.18.3,0,.2.13.31.52.55.92.55,1.15,1.02,1.15,1.61,0,.96-.31,1.57-1.56,1.57-1.44,0-1.52-.89-1.52-1.59v-.12h1.28Z"/>
    <path class="cls-1" d="M81.32,39.65v.23c0,.3.05.45.21.45.09,0,.16-.07.16-.28,0-.25-.05-.38-.58-.71-.82-.51-1.04-.86-1.04-1.57,0-.95.52-1.42,1.49-1.42,1.35,0,1.49.77,1.49,1.4v.24h-1.24v-.27c0-.29-.04-.39-.18-.39-.12,0-.18.08-.18.3,0,.2.13.31.52.55.92.55,1.15,1.02,1.15,1.61,0,.96-.31,1.57-1.56,1.57-1.44,0-1.52-.89-1.52-1.59v-.12h1.28Z"/>
    <path class="cls-1" d="M83.56,35.02h1.43v1.12h-1.43v-1.12ZM83.56,36.43h1.43v4.85h-1.43v-4.85Z"/>
    <path class="cls-1" d="M88.75,37.95v1.83c0,1.13-.67,1.58-1.67,1.58s-1.62-.45-1.62-1.58v-1.87c0-1.09.71-1.55,1.62-1.55.97,0,1.67.41,1.67,1.59ZM86.89,37.78v2.12c0,.24.06.36.22.36.18,0,.22-.15.22-.36v-2.12c0-.2-.04-.33-.22-.33-.16,0-.22.14-.22.34h0Z"/>
    <path class="cls-1" d="M89.22,37.8c0-.65,0-1.25-.02-1.37h1.38c.03.15.04.27.04.38.14-.18.41-.45.93-.45.73,0,.96.5.96,1.2v3.73h-1.43v-3.38c0-.15-.02-.35-.2-.35-.16,0-.23.1-.23.39v3.35h-1.43v-3.5Z"/>
    <path class="cls-1" d="M94.14,35.02h1.43v1.12h-1.43v-1.12ZM94.14,36.43h1.43v4.85h-1.43v-4.85Z"/>
    <path class="cls-1" d="M96.07,37.8c0-.65,0-1.25-.02-1.37h1.38c.03.15.04.27.05.38.13-.18.41-.45.93-.45.73,0,.96.5.96,1.2v3.73h-1.43v-3.38c0-.15-.02-.35-.2-.35-.16,0-.23.1-.23.39v3.35h-1.43v-3.5h-.01Z"/>
    <path class="cls-1" d="M99.64,36.43h.44v-1h1.4v1h.49v1.28h-.49v2.1c0,.22.04.29.28.29h.14v1.15c-.27.08-.65.09-.81.09-.85,0-1.05-.36-1.05-1.17v-2.45h-.41v-1.28h.01Z"/>
    <path class="cls-1" d="M105.58,37.95v1.83c0,1.13-.67,1.58-1.67,1.58s-1.62-.45-1.62-1.58v-1.87c0-1.09.71-1.55,1.62-1.55.97,0,1.67.41,1.67,1.59ZM103.72,37.78v2.12c0,.24.06.36.22.36.18,0,.22-.15.22-.36v-2.12c0-.2-.04-.33-.22-.33-.16,0-.22.14-.22.34h0Z"/>
    <path class="cls-1" d="M108.64,35.29v6h-1.42v-6h1.42Z"/>
    <path class="cls-1" d="M109.19,38.04c0-1.18,0-1.5-.02-1.61h1.35c.03.12.04.25.04.35.2-.29.49-.42.84-.42.52,0,.69.24.79.44.21-.24.5-.44.94-.44.79,0,1.02.63,1.02,1.28v3.65h-1.4v-3.41c0-.19-.04-.32-.19-.32-.13,0-.21.09-.21.34v3.39h-1.4v-3.43c0-.24-.07-.31-.19-.31-.13,0-.19.1-.19.33v3.4h-1.4v-3.24h.02Z"/>
    <path class="cls-1" d="M116.08,40.96v1.82h-1.43v-4.95c0-.65,0-1.23-.02-1.4h1.39c0,.1.04.28.04.45.13-.25.43-.52.93-.52.67,0,.95.4.95,1.25v2.35c0,.75-.2,1.4-1.12,1.4-.15,0-.55-.04-.75-.41h.01ZM116.51,39.8v-1.91c0-.22-.06-.35-.21-.35-.17,0-.23.14-.23.43v1.76c0,.27.04.43.21.43.12,0,.23-.06.23-.37h0Z"/>
    <path class="cls-1" d="M121.62,40.04c0,.67.02,1,.04,1.24h-1.37c-.04-.07-.07-.29-.08-.38-.22.34-.54.44-.87.44-.75,0-1.04-.67-1.04-1.43v-.1c0-1.28.85-1.58,1.79-1.58h.07v-.54c0-.26-.06-.32-.19-.32s-.19.08-.19.37v.2h-1.34v-.13c0-1.08.58-1.46,1.6-1.46.95,0,1.57.35,1.57,1.28v2.4h0ZM120.17,39.15h-.06c-.23,0-.37.16-.37.54v.04c0,.37.09.47.23.47.15,0,.21-.14.21-.38v-.67h-.01Z"/>
    <path class="cls-1" d="M125.18,39.41v.36c0,.99-.31,1.59-1.58,1.59-1.09,0-1.52-.5-1.52-1.65v-1.77c0-.94.43-1.58,1.58-1.58,1.28,0,1.54.74,1.54,1.54v.35h-1.33v-.43c0-.27-.04-.38-.18-.38-.16,0-.18.14-.18.36v2.12c0,.23.04.35.18.35.15,0,.18-.14.18-.43v-.42h1.31Z"/>
    <path class="cls-1" d="M125.5,36.43h.44v-1h1.4v1h.49v1.28h-.49v2.1c0,.22.04.29.28.29h.14v1.15c-.27.08-.65.09-.81.09-.85,0-1.05-.36-1.05-1.17v-2.45h-.41v-1.28h.01Z"/>
  </g>
  <g>
    <path class="cls-2" d="M36.7,5.58v-2.1c0-.32.59-1.11.97-1.2,1.2-.28,1.42.55,1.61,1.51.43,2.19.4,4.58.89,6.78-1.65.27-3.33.32-5,.37-.67.02-.99.37-1.72-.17-.28-.21-1.13-1.21-.9-1.57.25-.39,2.2-.52,2.69-.79C26.92.26,13.14,1.48,6.45,11.04s-2.99,23.41,7.65,28.21c13.37,6.02,27.72-4.43,26.79-18.83-.11-1.78-1.49-4.49,1.65-3.97.71.12.78.66.91,1.26,2.42,11.41-5.46,23.31-16.76,25.74C12.14,46.58-.86,35.02.04,20.28,1.15,2.15,23.32-6.45,36.68,5.58h.02Z"/>
    <path class="cls-1" d="M18.3,7.9l-.58,2.75c1.31.28,4.22,1.26,5.15,2.17.48.47.11,2.04.07,2.69-.04.57.14,1.44-.14,1.89l-4.6,3.38-.38.13-4.85-1.73c-.2-1.24-.25-2.55-.18-3.81.02-.43.37-1.6.28-1.86-.11-.35-1.58-.35-1.95-.38-.21-.02-.42.12-.36-.21,1.93-2.27,4.61-4.29,7.53-5v-.02h.01Z"/>
    <path class="cls-1" d="M11.4,29.56s-.1-.48-.34-.23c-.09.09-.25,1.5-.36,1.74-2-2.45-3.2-5.65-3.11-8.83l1.66,1.59,3.04-3.19.29-.13,4.86,1.95,1.72,5.54c.06.18-.03.27-.11.4-.42.72-1.91,1.57-2.32,2.46-.15.13-.35.3-.55.33-.87.15-3.97-1.07-4.77-1.63,0,0,0,0-.01,0Z"/>
    <path class="cls-1" d="M34.67,14.7l-1.59-.14c-.21.88.05,4.93-.33,5.32-.12.13-2.97,1.13-3.26,1.17-.61.08-1.49-1.02-1.99-1.42s-2.81-2.01-2.94-2.42c-.1-.33-.07-4.15.04-4.39,1.1-.8,2.36-1.67,3.69-2.03l-1.16-2.31c3.12,1,5.76,3.52,7.53,6.22h.01Z"/>
    <path class="cls-1" d="M25.98,36.42c-2.6.52-5.11.49-7.68-.14-.3-.25,1.01-.7,1.01-.94-.63-.32-2.14-3.04-1.85-3.52.03-.05.29-.13.41-.24.81-.78,1.55-1.64,2.42-2.37,2,.06,4-.2,5.98-.1l2.12,3.04c-.86,1.36-1.82,2.66-2.99,3.76l.58.51Z"/>
    <path class="cls-1" d="M36.21,23.76c.07-.06.04-.39.2-.15-.24,2.07-.82,4.01-1.86,5.82-.19.33-.95,1.54-1.18,1.71-.48.38-.35-.8-.51-.8-.63.32-3.03,1.11-3.55.8-.17-.11-1.87-2.8-1.87-3.04.77-1.7,1.43-3.44,2.01-5.22,1.13-.74,2.51-1.01,3.7-1.64.25.02,1.88,2.72,2.24,2.95.23.15.65-.28.82-.43Z"/>
  </g>
</svg>